# xmcd
# 
# Track frame offsets:
#     150
#     23266
#     34852
#     52537
#     72715
#     94035
#     114077
#     134241
#     151566
#     169031
#     193366
#     214338
#     236544
# 
# Disc length: 3322
# 
# Revision: 1
# Processed by: cddbd v1.5.2PL0 Copyright (c) Steve Scherf et al.
# Submitted via: fre:ac v1.0.17
# 
DISCID=a80cf80d
DTITLE=Mon Pleang Carabao - มนต์เพลงคาราบาว disk2
DYEAR=2007
DGENRE=Pop/Rock
TTITLE0=ฝาโลง - โป่ง หินเหล็กไฟ
TTITLE1=จับกัง - ปู แบล็คเฮด
TTITLE2=แม่สาย - รุ่งฤดี แพ่งผ่องใส
TTITLE3=หัวใจบ้าบิ่น - ศักดา พัทธสีมา
TTITLE4=สาธุชน - สุรสีห์ อิทธิกุล
TTITLE5=รักต้องสู้ - กิฟท์ โมโนโทน
TTITLE6=เทวดาท่าจะแย่ - ติ๊ก ชีโร่
TTITLE7=บาปบริสุทธิ์ - สายัณห์ สัญญา
TTITLE8=รักคุณเท่าฟ้า - วิยะดา โกมารกุล ณ นคร
TTITLE9=ยายสำอาง - ไวพจน์ - ขวัญจิต
TTITLE10=ทะเลใจ - ป๊อด โมเดิร์นด๊อก
TTITLE11=เรฟูจี - พงษ์สิทธิ์ -คณาคำ
TTITLE12=คนสร้างชาติ์
EXTD=
EXTT0=
EXTT1=
EXTT2=
EXTT3=
EXTT4=
EXTT5=
EXTT6=
EXTT7=
EXTT8=
EXTT9=
EXTT10=
EXTT11=
EXTT12=
PLAYORDER=
